<svg id="圖層_2" data-name="圖層 2" xmlns="http://www.w3.org/2000/svg" viewBox="0 0 4000 4000"><defs><style>.cls-1{opacity:0.3;}.cls-2{fill:#000072;}.cls-3{fill:#e9fbff;}.cls-4{fill:#33aef2;}.cls-5{fill:#fff;}.cls-6{opacity:0.5;}.cls-7,.cls-9{fill:none;}.cls-8{fill:#f7428b;}.cls-9{stroke:#000072;stroke-miterlimit:10;stroke-width:40px;}</style></defs><g class="cls-1"><ellipse class="cls-2" cx="2001.52" cy="3454.43" rx="874.69" ry="77.18"/></g><path class="cls-3" d="M2641.44,2423.57s84.83-42.7,254.65,29.42c36.82,15.67,77.67,36.69,122.51,64.78,191.6,119.89,191.54-97,2.29-294.76q-13-13.62-27.25-27.08c-109.77-103.79-238.47-94.26-238.47-94.26Z"/><path class="cls-2" d="M3017.4,2519.69c-41.65-26.09-82.77-47.83-122.2-64.61-87.13-37-151.23-43-189.66-41.6-41.59,1.57-62.88,12-63.09,12.11l-5,2.53,116.1-328.6,1.48-.11c.32,0,33-2.28,78.74,8.26a349.9,349.9,0,0,1,161.45,86.62c9.64,9.12,18.83,18.26,27.33,27.16,57.37,60,101.8,126.66,125.11,187.82,21.73,57,22.94,103.53,3.31,127.63a45.28,45.28,0,0,1-13.51,11.3C3111.64,2562.29,3069.94,2552.56,3017.4,2519.69Zm-372.12-100.2c8.55-3.25,28.34-9.29,59.71-10.52,39-1.52,103.88,4.52,192,41.94,39.65,16.88,81,38.72,122.83,64.94,31.74,19.86,59.25,31.15,81.76,33.55,20.38,2.18,35.82-3,45.88-15.35,18.58-22.82,17.11-67.71-4-123.17-23.1-60.61-67.19-126.77-124.15-186.3-8.45-8.85-17.59-17.93-27.17-27a345.33,345.33,0,0,0-159.18-85.44c-39.66-9.18-69.33-8.57-76.11-8.28Z"/><g class="cls-1"><path class="cls-2" d="M2641.44,2423.57s84.83-42.7,254.65,29.42c56.33-77.51,96.69-159.58,124.8-230q-13-13.62-27.25-27.08c-109.77-103.79-238.47-94.26-238.47-94.26Z"/></g><path class="cls-2" d="M3146.54,2565a64.68,64.68,0,0,0,20.24-17.34c13.12-17,18.74-40.46,16.73-69.84-1.82-26.54-9.78-56.55-23.64-89.18-29.72-70-83.55-143.89-151.58-208.2A369.08,369.08,0,0,0,2838,2089.09c-48.48-11.19-83-8.81-84.43-8.7a21.33,21.33,0,0,0,3.15,42.55c.25,0,30.69-2,73.27,8.09A321.86,321.86,0,0,1,2979,2211.42c63.85,60.36,114.14,129.21,141.62,193.87,26.78,63,23.43,102,12.43,116.24-13.72,17.74-53.23,9.36-103.11-21.86-258.71-161.92-392.5-98-398.07-95.17l19.18,38.12-.2.1c.29-.14,29.83-13.85,87.77-9.51,54.26,4.06,144.91,25.16,268.68,102.63C3079.42,2581,3122.09,2578.32,3146.54,2565Z"/><path class="cls-4" d="M1862,1667.78s-114.79-204.11-459.41-349.31c-54.23-22.85-109.38,30.67-87.84,85.44,45.92,116.75,107.76,387.57,76.19,472.33"/><g class="cls-1"><path class="cls-5" d="M1391,1876.23l.07,0v-.14A1.34,1.34,0,0,1,1391,1876.23Z"/><polygon class="cls-2" points="1385.88 1881.23 1393.3 1877.6 1393.3 1866.46 1385.88 1881.23"/></g><g class="cls-6"><path class="cls-5" d="M1312.15,1395.86c16.34-25.31,49.4-39.36,82.14-25.56,254.85,107.37,384,247,434,312.39l33.72-14.92s-114.81-204.11-459.4-349.3C1351,1296.74,1298.65,1344.08,1312.15,1395.86Z"/></g><path class="cls-2" d="M1391,1897.58a21.35,21.35,0,0,0,20-13.9c19.68-52.84,6.49-157.23-8-235.51-16.78-90.33-43.58-189.28-68.27-252.07-6.84-17.39-2.94-35.58,10.44-48.64,10.41-10.16,28.81-18,49.26-9.33,173.94,73.29,286.79,161.87,350.83,223.28,69.36,66.51,98,116.36,98.28,116.86a21.33,21.33,0,0,0,37.17-21c-1.23-2.2-31.07-54.57-104.26-125.11-42.58-41-91.27-80-144.72-115.65-66.62-44.49-140.88-84.11-220.73-117.75-33.21-14-69.86-7-95.64,18.11s-33.48,61.4-20.34,94.8c48.8,124.08,103.4,383.62,76,457.07a21.36,21.36,0,0,0,20,28.79Z"/><path class="cls-4" d="M1277,2439c-13.68.6-37,.81-50,1-2.65,0-.42-6-3-6-4.87,0-14.28,1-19,1-2.4,0-6.68-1-9-1-13.77-.08-24.53-15.52-37.39-16.05-2.6-.07-5.19-.21-7.68-.3-.21,0-.31,0-.45,0-2.7-.12-5.4-.24-8-.39l-10.7-.61c-4.26-.3-8.42-.55-12.5-.86-2.62-.18-5.2-.39-7.71-.59l-10.41-.9q-23.76-2.13-45-5l-5.26-.72q-18.34-2.61-34.83-5.52c-3.1-.57-6.22-1.17-9.29-1.69-5.73-1.1-11.25-2.24-16.63-3.36-1.75-.35-3.5-.69-5.24-1.1l-5.06-1.12c-3.42-.74-6.74-1.51-9.91-2.26s-6.31-1.53-9.38-2.3c-60.32-15.06-90.43-30.69-90.43-30.69s-264.74,405.5-266.35,223C602.21,2413,640.41,2346,640.41,2346c-144.51-30.45-283.88-178.32-404.19-244.4-31.3-17.2-29.13-62.64,3.54-77.11,61.34-27.09,137.46-41.59,296,12.34,136.11,46.33,277.05,168.19,277.05,168.19l230.36-109.72"/><path class="cls-4" d="M3295,1242.15c-7.81-32.88-24.4-64.88-50.07-93.72-110.66-124.87-389-191.33-845.13-20.29C1907,1312.94,1533.57,1726.93,1256,1892L918,2215l316,186.53c36.44,25.28,77.2,51,122.69,76.67,3.06,1.68,6.13,3.4,9.19,5.13q30.06,16.66,62.85,33.28C1891,2750,2441,2620.6,2812.32,2310.51q7.41-6.21,14.81-12.64c10.47-9.13,20.84-18.61,31.06-28.34,3.41-3.26,6.81-6.52,10.17-9.82q21.1-20.67,41.43-42.86c2.67-2.92,5.33-5.88,8.05-8.84a2.41,2.41,0,0,1,.34-.4c3.16-3.55,6.32-7.11,9.43-10.71q5.64-6.37,11.11-12.84c2.67-3.11,5.29-6.22,7.9-9.38,3.16-3.75,6.32-7.56,9.38-11.36,2.62-3.21,5.19-6.42,7.81-9.63,3.6-4.49,7.11-9,10.61-13.48,3.06-3.9,6.08-7.8,9.09-11.75s6-7.9,8.94-11.85,5.92-8,8.88-12q22.52-30.89,43.7-63.1c2.42-3.75,4.84-7.46,7.26-11.21l8.15-12.74c2.66-4.24,5.33-8.49,8-12.79s5.28-8.54,7.9-12.88,5.18-8.6,7.75-12.94,5.13-8.64,7.65-13,5.09-8.74,7.56-13.08,4.83-8.44,7.2-12.69q11.19-20,21.83-40.14,3.26-6.15,6.42-12.3c20.34-39.3,39.11-79,56.09-118.5q2.74-6.37,5.43-12.74l5.33-12.74,5.19-12.74c1.68-4.2,3.36-8.44,5-12.69s3.3-8.44,4.93-12.64q7.26-19,14-37.77c1.53-4.15,3-8.35,4.44-12.5,2.91-8.34,5.73-16.59,8.44-24.83,1.39-4.15,2.72-8.25,4-12.35s2.62-8.19,3.9-12.29q3.78-11.93,7.21-23.65c3.61-12.3,7.06-24.54,10.27-36.59a.38.38,0,0,1,.1-.2q5-19.18,9.43-37.82C3303.67,1400.5,3310.38,1306.73,3295,1242.15Z"/><path class="cls-3" d="M883,2349c2,2.46,9.94,14.46,12,17s5.79,5.36,8,8c1.09,1.3,9.84,2.7,11,4s7.81.66,9,2c3.59,4.16,9.09,5.65,13,10,2.14,2.28,7.86.68,10,3,7.57,8.22,8.31,5.2,17,14,1.23,1.16,9.73,4.73,11,6,3.3,3.3,11.52,6.63,15,10,7.17,6.95,8.11,3.79,16,11,2.57,2.32,8.39,1.61,11,4,1.88,1.67,7,3.3,9,5,3.08,2.72,4.81,2.17,8,5,2.68,2.28,7.25,5.65,10,8,2,1.74,11.94,2.26,14,4,.11.07,10.86,5.86,11,6,2,1.56,8,3.37,10,5,9.92,8.18,7.1,2.6,18,11,1.81,1.45,4.08,1.59,6,3,3.77,2.86,4.09,1.1,8,4,2.06,1.52,6.9,4.44,9,6,44.26,32.67,124.46,43.43,184,77,3,1.67,26,8.26,29,10,20.06,11.08,37.15,10.3,61,16,469,112,1031.55,30.2,1402.9-279.87,1.31-1.09,2.61-2.21,3.91-3.3,3.63-3.11,7.28-6.19,10.9-9.34,2.36-2.07,4.71-4.17,7.07-6.27.36-.29.68-.58,1-.87q11.63-10.38,23-21.22c3.4-3.26,6.81-6.52,10.17-9.81s6.74-6.67,10.11-10q15.85-16,31.32-32.84c2.65-2.9,5.33-5.87,8-8.84a1.94,1.94,0,0,1,.33-.4c3.19-3.55,6.34-7.1,9.45-10.72,3.73-4.24,7.46-8.51,11.09-12.82,2.68-3.11,5.28-6.23,7.93-9.38,3.15-3.77,6.3-7.57,9.38-11.37,2.6-3.19,5.17-6.41,7.78-9.6,3.62-4.52,7.1-9,10.61-13.51,3.08-3.87,6.09-7.78,9.09-11.73s6-7.9,8.95-11.84,5.9-8,8.87-12q22.55-30.85,43.71-63.08l7.25-11.23q4.07-6.36,8.15-12.71c2.68-4.28,5.36-8.51,8-12.82s5.29-8.51,7.89-12.86,5.18-8.62,7.75-13,5.15-8.62,7.68-13,5.07-8.76,7.53-13.07,4.86-8.48,7.21-12.72q11.19-20,21.84-40.12c2.17-4.09,4.31-8.22,6.41-12.32,20.35-39.29,39.11-79,56.1-118.49,1.81-4.24,3.66-8.51,5.43-12.75s3.55-8.48,5.32-12.75,3.48-8.47,5.18-12.71,3.37-8.44,5-12.71,3.33-8.44,5-12.64c4.81-12.64,9.52-25.21,14-37.77,1.52-4.13,3-8.33,4.46-12.5q4.35-12.49,8.44-24.81c1.37-4.16,2.71-8.25,4.05-12.35s2.61-8.22,3.88-12.31q3.75-11.83,7.2-23.65c3.63-12.28,7.07-24.52,10.29-36.58a.31.31,0,0,1,.11-.21c3.33-12.79,6.52-25.35,9.41-37.81,25-107.2,31.77-201,16.41-265.53-.07-.33-.18-.69-.25-1-16.95-69.82-74.86-121.72-145.37-135.59-215.67-42.45-418.26,273-622.8,541.13C2043.74,2265.69,1517.9,2573.36,883,2349Z"/><g class="cls-6"><path class="cls-5" d="M212.44,2081.26c1.95,4.42,3.87,8.91,5.76,13.51,2.89.07-9-12.53-6.2-13.77,82-36,275.55-10.1,418,78,76,47,93,90,183,109,81.3,17.16,275.09-146.58,338-197,302-242,665.65-666.09,1207.53-869.29,456.14-171,734.49-104.59,845.13,20.28,25.68,28.83,42.26,60.84,50.08,93.73,15.36,64.57,8.62,158.33-16.4,265.53-2.9,12.46-6.09,25-9.42,37.85a.24.24,0,0,0-.11.18c-3.22,12.06-6.66,24.3-10.28,36.57q-3.37,11.75-7.21,23.65c-1.27,4.13-2.57,8.22-3.87,12.32s-2.68,8.18-4.06,12.35c-2.72,8.22-5.54,16.47-8.44,24.84-1.45,4.13-2.93,8.33-4.45,12.46-4.49,12.56-9.2,25.13-14,37.77-1.63,4.2-3.26,8.48-5,12.68s-3.33,8.47-5,12.67-3.44,8.48-5.18,12.75l-5.33,12.71c-1.77,4.27-3.62,8.51-5.43,12.75q-4.29,10-8.76,20c15.61-31.22,30.17-62.65,43.64-93.94,1.81-4.24,3.66-8.51,5.43-12.75s3.55-8.48,5.32-12.75,3.48-8.47,5.18-12.71,3.37-8.44,5-12.71,3.33-8.44,5-12.64c4.81-12.64,9.52-25.21,14-37.77,1.52-4.13,3-8.33,4.46-12.5q4.35-12.49,8.44-24.81c1.37-4.16,2.71-8.25,4.05-12.35s2.61-8.22,3.88-12.31c2.53-7.93,5-15.83,7.2-23.65,3.63-12.28,7.07-24.52,10.29-36.58a.31.31,0,0,1,.11-.21c3.33-12.79,6.52-25.35,9.41-37.81,25-107.2,31.77-201,16.41-265.53-7.82-32.89-24.41-64.9-50.09-93.73-110.63-124.87-389-191.33-845.12-20.32C1739.57,1372.94,1089,2139,813,2205c0,0-38,5-147-80-132.08-103-296-108-404.09-103C226.22,2023.67,197.92,2048.63,212.44,2081.26Z"/></g><g class="cls-1"><path class="cls-2" d="M883,2349c7.17,6.95,44.11,41.79,52,49,2.57,2.32,36.39,22.61,39,25,1.88,1.67,21,4.3,23,6,3.08,2.72,18.81,25.17,22,28,2.68,2.28,8.25,4.65,11,7,2,1.74,7.94,3.26,10,5,.11.07,6.86,3.86,7,4,2,1.56,10,5.37,12,7,9.92,8.18,10.1,2.6,21,11,1.81,1.45,14.08,7.59,16,9,3.77,2.86,10.09,3.1,14,6,2.06,1.52,17.9,8.44,20,10,44.26,32.67,110.46,35.43,170,69,3,1.67,19,4.26,22,6,20.06,11.08,30.91,11.42,55,16,500,95,1055.55,13.2,1426.9-296.87,1.31-1.09,2.61-2.21,3.91-3.3s2.32-2,3.48-3q7.77-6.74,14.49-12.6c.36-.29.68-.58,1-.87,36.65-31.87,49.76-43.38,43.28-41.07C2838,2260.76,2472,2484,1810.29,2518.58,1534.06,2533,1126.13,2506.48,883,2349Z"/></g><path class="cls-7" d="M821.38,2224.59,809.05,2230l-10.17-8.79c-1.38-1.2-139.46-119.72-270-164.12-161.63-55-229.54-35.55-280.51-13a21.5,21.5,0,0,0-13.07,19.07,21,21,0,0,0,11.18,19.81c44.35,24.36,90,58.58,138.27,94.8,84.47,63.35,171.82,128.86,260,147.46l45.65,9.63L657.31,2360c-7,15.48-33.52,83.15-32.25,223.26.15,16.82,2.77,23.68,4,26,3.83-.65,17.51-5,47.2-33.7,22.16-21.43,48.68-52,78.82-90.74,51.89-66.77,96.71-135.26,97.16-135.94l10.51-16.19,17.13,8.89c.51.26,51.71,26.12,151.82,42.51,53.31,8.73,127.15,15.72,220.34,12.68L1029,2085C932,2147,880.88,2198.59,821.38,2224.59Z"/><path class="cls-7" d="M1438.37,2497.55c480.72,242.7,1029.57,72.73,1360.26-203.39,144.6-120.73,282-319,377.09-543.89,42.21-99.89,73.69-199.82,91-289,17.2-88.46,19.81-162.53,7.54-214.22-13.87-58.46-58.29-110.25-125.07-145.82-67.68-36.06-157-54.89-259.58-54.89q-12.75,0-25.75.38c-134.28,4-287.9,38.13-456.59,101.39-323.07,121.15-609.1,345.5-838.93,525.77-120.63,94.61-224.8,176.32-318.66,232.8q-7.95,4.79-15.71,9.26v459.36C1290,2415,1357.53,2456.74,1438.37,2497.55Z"/><path class="cls-2" d="M890,2351l-27.25-18.32-10.51,16.19c-.45.68-45.27,69.17-97.16,135.94-30.14,38.78-56.66,69.31-78.82,90.74-29.69,28.71-43.37,33-47.2,33.7-1.23-2.31-3.85-9.17-4-26-1.27-140.11,25.21-207.78,32.25-223.26l33.15-25.19-45.65-9.63c-88.22-18.6-175.57-84.11-260-147.46-48.3-36.22-93.92-70.44-138.27-94.8a21,21,0,0,1-11.18-19.81A21.5,21.5,0,0,1,248.39,2044c51-22.52,118.88-42,280.51,13,130.52,44.4,268.6,162.92,270,164.12l10.17,8.79a88.83,88.83,0,0,0,25-15c35.93-31.07,78-32,195-106l-14-31c-.9,2.29-33,20.63-35,22-85,58-89.87,50.66-141,73-6,2.62-17.72,3.71-23.14,6.74-3.55-2.92-7.89-6.44-13-10.47-46.56-37.05-153.78-116.37-260.27-152.59-167.79-57.08-248.88-39.34-311.5-11.66a64.35,64.35,0,0,0-5.19,115.3c41.71,22.91,86.16,56.24,133.21,91.53,80.65,60.49,163.8,122.85,252,148.79-3.74,10.54-7.21,22.31-10.36,35.11-12.85,52.22-19,115.44-18.37,187.9.34,37.8,11.73,60.25,33.87,66.73,22.45,6.57,48.6-5.62,84.8-39.54,23.86-22.35,52.32-54.6,84.58-95.85,39.51-50.51,75.4-102.67,92.24-127.67"/><path class="cls-2" d="M1939.51,2657.47a1279.16,1279.16,0,0,0,218.74-19.09c121.15-21,240.68-58.94,355.27-112.7A1445.82,1445.82,0,0,0,2826,2326.91c78.86-65.84,154.18-151.39,223.88-254.26,62.5-92.24,119.61-198,165.16-305.77,43.35-102.57,75.72-205.43,93.62-297.45,18.35-94.37,20.83-174.67,7.17-232.23-16.74-70.54-68.78-132.2-146.53-173.62-38.72-20.63-83.5-36.18-133.11-46.22-52.73-10.68-111.13-15.14-173.56-13.28-139,4.16-297.2,39.18-470.29,104.09-146.75,55-297.5,134.67-460.85,243.46C1789.76,1446,1658.15,1549.24,1542,1640.31c-116.78,91.6-186,148.69-268,213.69,0,7.46-47,50.54-47,58,0,9.09,17,9.91,17,19,3.47-2,5.82-1.2,12-6,90-70,191.74-156.5,312.37-251.11,229.83-180.27,515.86-404.62,838.93-525.77,168.69-63.26,322.31-97.37,456.59-101.39q13-.39,25.75-.38c102.57,0,191.9,18.83,259.58,54.89,66.78,35.57,111.2,87.36,125.07,145.82,12.27,51.69,9.66,125.76-7.54,214.22-17.34,89.17-48.82,189.1-91,289-95,224.92-232.49,423.16-377.09,543.89C2590.49,2468,2295.92,2599.69,1986.32,2613"/><path class="cls-8" d="M2983.66,1788c20.55-9.4,42.51,10,35.93,31.61-27.23,89.55-116.64,236.83-263.44,237-172.16.23-235.63-163.88-239.64-252.51-.93-20.57,21-34.27,38.9-24,65.09,37.31,145.83,59,202.44,60.86C2826.72,1843.1,2906.26,1823.35,2983.66,1788Z"/><path class="cls-2" d="M2561.56,1972.17c-40.84-56.13-57.53-123.3-59.52-167.45a40.79,40.79,0,0,1,19.49-36.69,39.84,39.84,0,0,1,41.08-.56c67.24,38.55,146.74,57.38,195.71,59,64.12,2.06,142-16.29,219.31-51.64h0a40.74,40.74,0,0,1,55.82,49c-16.94,55.71-50.61,114.62-90.07,157.6-24.94,27.16-52.29,48.54-81.31,63.55a229.14,229.14,0,0,1-105.9,26.14h-.37C2654.75,2071.07,2594.39,2017.31,2561.56,1972.17Zm428.12-171.05c-78.09,35.72-154.25,54.44-221.12,54.44-3.75,0-7.48-.06-11.17-.18-64.14-2.05-146.25-26.7-209.19-62.78a11.13,11.13,0,0,0-11.58.17,11.57,11.57,0,0,0-5.64,10.64c4.17,92.33,68.9,238.69,224.83,238.69h.32c142.95-.19,225.78-148.41,249.6-226.75a11.93,11.93,0,0,0-11.12-15.36A11.85,11.85,0,0,0,2989.68,1801.12Z"/><path class="cls-5" d="M2548.89,1777.34l19.16,88.13a11.73,11.73,0,0,0,13.14,9.11l57.76-8.39a15.18,15.18,0,0,1,13.74,5.19l27.14,31.9a23.38,23.38,0,0,0,27.29,6.22l57.63-25.56a15.19,15.19,0,0,1,12.78.22l51.38,24.93a23.89,23.89,0,0,0,27.49-4.76l27-27.51a15.2,15.2,0,0,1,17.63-2.94l22.16,11.1a25,25,0,0,0,33-10.16l48.66-87.16a25.61,25.61,0,0,0-21.18.3c-77.38,35.4-156.92,55.15-225.8,52.93-56.64-1.82-137.37-23.55-202.45-60.88A26.6,26.6,0,0,0,2548.89,1777.34Z"/><path class="cls-2" d="M2827.92,1911.13l-51.38-24.93a12.93,12.93,0,0,0-10.88-.19L2708,1911.57a25.8,25.8,0,0,1-29.94-6.82l-27.13-31.9a12.86,12.86,0,0,0-11.7-4.42l-57.76,8.39a14,14,0,0,1-15.67-10.87l-20-91.75,3.59,1a28.44,28.44,0,0,1,7.06,2.89c59.76,34.28,140.69,58.62,201.39,60.58,66.94,2.15,144.68-16.07,224.78-52.73a27.88,27.88,0,0,1,23-.31l2.29,1-49.88,89.35a27.17,27.17,0,0,1-36,11.07L2900,1875.91a12.89,12.89,0,0,0-15,2.5l-27,27.51a26.15,26.15,0,0,1-30.1,5.21Zm74.15-39.27,22.16,11.09a22.65,22.65,0,0,0,30-9.23l47.38-84.86a23.43,23.43,0,0,0-17,1.16c-80.74,36.94-159.17,55.32-226.82,53.13-61.37-2-143.15-26.56-203.51-61.18a22.71,22.71,0,0,0-2.31-1.17l18.3,84.19a9.49,9.49,0,0,0,10.6,7.35l57.76-8.39a17.34,17.34,0,0,1,15.8,6l27.13,31.89a21.23,21.23,0,0,0,24.65,5.62l57.63-25.56a17.43,17.43,0,0,1,14.69.26l51.38,24.92a21.64,21.64,0,0,0,24.89-4.3l27-27.51a17.38,17.38,0,0,1,20.26-3.38Z"/><path class="cls-2" d="M2822.59,1922.12l-51.38-24.92a.68.68,0,0,0-.59,0L2713,1922.75a38.1,38.1,0,0,1-44.2-10.08l-27.13-31.9a.73.73,0,0,0-.63-.24l-57.76,8.38a26.28,26.28,0,0,1-29.35-20.28l-21.59-95,9.7-5.22c3.46-1.87,12.42-5.69,20.59-.94,67.19,38.54,146.71,57.38,195.7,59,64.14,2.08,142-16.26,219.29-51.61a40.35,40.35,0,0,1,22.36-3.4,19.45,19.45,0,0,1,14.77,10.6,19.68,19.68,0,0,1-.42,18.4l-45.49,81.48a39.39,39.39,0,0,1-52.1,16l-22.16-11.09a.7.7,0,0,0-.81.13l-27,27.52a38.36,38.36,0,0,1-44.15,7.63Zm-38.74-51,51.38,24.93a9.43,9.43,0,0,0,10.84-1.88l27-27.51a29.59,29.59,0,0,1,34.44-5.74L2929.7,1872a10.46,10.46,0,0,0,13.83-4.26l34.22-61.29c-78.25,34.15-154.2,51-220.36,48.9-57.34-1.85-129-21.72-188.52-51.69l12.77,56.2,55.22-8a29.51,29.51,0,0,1,26.87,10.14l27.13,31.89a9,9,0,0,0,10.39,2.37l57.62-25.56a29.64,29.64,0,0,1,25,.43Zm-235.59-78.52-.13-.07Z"/><path class="cls-5" d="M2566.67,1954.21c20,30,46.51,57.13,80.73,75.84,30.07,16.55,66.07,26.57,108.78,26.52,48.14-.05,90.11-16,125.76-40.44a.15.15,0,0,1,.1-.05c22.22-15.31,41.92-33.92,59.15-54.12-10.56-9.38-19.3-18.17-32-31.79-3.41-3.71-9-2.37-13.14,2.91-15.5,20.1-23.9,29-41.57,44.49-3.95,3.45-8.69,4.24-12.4,2.17a180.42,180.42,0,0,1-28.39-19.11c-6.61-5.28-15.21-4.49-21.82,1.88-16.15,15.5-25,22.32-43.9,33.38a10.28,10.28,0,0,1-10.62-.1c-16.93-10.22-24.88-16.4-39.55-30.22-6.56-6.22-15-7.06-21.77-2.08a170.36,170.36,0,0,1-26.66,16.64c-4.74,2.47-10.92.3-14.82-5.33-5.92-8.44-8.74-12.84-14.12-21.82-7.21-12-19-17.28-28-12A250.65,250.65,0,0,1,2566.67,1954.21Z"/><path class="cls-2" d="M2646.31,2032c-31.85-17.42-59.28-43.19-81.52-76.57l-1.51-2.26,2.49-1.08a242.67,242.67,0,0,0,25.49-13.16c10.09-5.84,23.18-.44,31.12,12.84,5.56,9.28,8.31,13.54,14,21.7,3.19,4.61,8.2,6.55,11.91,4.62a168.43,168.43,0,0,0,26.37-16.46c7.61-5.61,17.3-4.73,24.67,2.25,14.9,14,22.58,19.92,39.18,29.94a8,8,0,0,0,8.29.07c18.59-10.87,27.12-17.36,43.47-33,7.41-7.14,17.38-8,24.8-2a177.65,177.65,0,0,0,28.09,18.91c2.87,1.6,6.62.87,9.8-1.91,17.77-15.54,25.87-24.21,41.27-44.17,2.79-3.59,6.38-5.73,9.86-5.88a8.55,8.55,0,0,1,6.72,2.81c13.24,14.21,21.87,22.79,31.84,31.65l1.66,1.47-1.44,1.69c-18.49,21.67-38.54,40-59.59,54.51l-.58.4h0c-39.24,26.83-81.8,40.45-126.53,40.49h-.31C2715.49,2058.83,2678.63,2049.82,2646.31,2032Zm234.62-18c20.12-13.88,39.32-31.34,57.1-51.92-9.41-8.45-17.89-16.93-30.5-30.47a4,4,0,0,0-3.21-1.37c-2.11.09-4.53,1.64-6.47,4.13-15.43,20-24,29.22-41.87,44.81-4.66,4.08-10.41,5-15,2.44a182,182,0,0,1-28.69-19.31c-5.66-4.52-13.06-3.83-18.85,1.74-16.46,15.81-25.57,22.74-44.33,33.71a12.52,12.52,0,0,1-12.91-.12c-16.72-10.09-24.93-16.37-39.94-30.52-5.79-5.48-13-6.21-18.88-1.89a173.5,173.5,0,0,1-27,16.82c-5.76,3-13.21.46-17.71-6-5.8-8.26-8.59-12.57-14.21-22-6.62-11.07-17.12-15.8-25-11.25a263.31,263.31,0,0,1-23.46,12.3c21.56,31.69,47.93,56.2,78.43,72.88,31.65,17.41,67.77,26.24,107.38,26.24h.3c44,0,85.82-13.5,124.42-40Z"/><path class="cls-2" d="M2640.45,2042.76c-33.61-18.38-62.49-45.47-85.84-80.52l-9.62-14.45,15.94-6.88a231.34,231.34,0,0,0,24.2-12.52c15.87-9.19,36.39-1.82,47.74,17.14,5.16,8.62,7.82,12.75,13,20.1a153.49,153.49,0,0,0,21.62-13.79c12.43-9.16,28.64-7.87,40.31,3.19,13.48,12.71,20.73,18.36,35,27.1,16.14-9.55,24.18-15.79,39-30.06,11.84-11.4,28.67-12.54,40.88-2.79a161.39,161.39,0,0,0,23.59,16.2c16.13-14.18,23.88-22.57,38.32-41.28,5-6.44,11.91-10.3,19-10.6a20.54,20.54,0,0,1,16.19,6.69c13.11,14.08,21.22,22.15,31,30.84l10.62,9.43-9.22,10.81c-19.18,22.48-40,41.53-61.95,56.64l-3.71,2.56h-.1c-40.43,26.82-84.23,40.44-130.26,40.49h-.32C2713.41,2071.06,2674.57,2061.53,2640.45,2042.76Zm233.29-38.57.52-.35a285.62,285.62,0,0,0,46.66-40.88c-5.1-4.9-10.38-10.26-16.63-16.86-14.06,18-23,27.28-40.26,42.37-8.53,7.47-19.92,9-29,3.9a193.53,193.53,0,0,1-30.34-20.42c-.32-.26-.93-.75-2.75,1-17.29,16.6-26.88,23.89-46.62,35.43l-.1.06a24.86,24.86,0,0,1-25.31-.26c-17.61-10.63-26.24-17.22-42-32.1-2-1.86-2.68-1.33-3.22-.93a185.7,185.7,0,0,1-28.56,17.82c-11.3,5.89-25.35,1.71-33.36-9.86-6.35-9-9.37-13.8-14.7-22.7-3.61-6-7.71-7.33-8.39-6.94-4.1,2.36-7.79,4.42-11.22,6.26,18.8,24.58,40.93,43.92,66,57.62,29.83,16.41,64,24.72,101.49,24.72h.29c41.48,0,81-12.79,117.58-37.89Zm16.4,23.88-.12.09.25-.18Zm-145.22-44.64,0,0Zm162.83-41.75Zm-9.15-1.64-.07-.07Z"/><ellipse class="cls-2" cx="3144.96" cy="1474.91" rx="33.19" ry="22.69" transform="translate(1122.82 4299.29) rotate(-79.52)"/><ellipse class="cls-2" cx="3001.02" cy="1448.3" rx="33.19" ry="22.69" transform="translate(1031.22 4135.97) rotate(-79.52)"/><path class="cls-3" d="M2240.44,2572.68s-118.39,98-271.22,163.87c-300.87,129.61-550.76,33.08-336.51-115,93.36-64.54,148.07-113,182-146.51,70.58-69.54,126.48-148.23,126.48-148.23"/><g class="cls-1"><path class="cls-2" d="M1984.12,2725.34c107.89-46.51,198.63-109,242.65-141.77-51.86,22.54-161.91,74.73-234.32,96.23-196,58.18-369.82,54.2-349.82-66C1437.33,2759.91,1685.67,2853.9,1984.12,2725.34Z"/></g><path class="cls-2" d="M2235.9,2567.2a171.17,171.17,0,0,0-20.42,7.32c-1.65.67-3.24,1.42-4.86,2.13s-3.22,1.43-4.81,2.18c-3.19,1.48-6.31,3-9.41,4.61s-6.18,3.19-9.2,4.86l-4.51,2.55q-2.27,1.26-4.5,2.56c-3,1.73-5.91,3.53-8.83,5.34l-8.8,5.37-4.39,2.7-4.34,2.75-8.72,5.47c-2.92,1.81-5.77,3.71-8.66,5.56l-4.29,2.83-4.33,2.77c-5.76,3.72-11.46,7.55-17.18,11.33l-17.28,11.19c-23.14,14.75-47.17,28.05-71.58,40.43l-4.56,2.36-4.61,2.24-9.23,4.48-9.23,4.48c-1.54.74-3.06,1.52-4.62,2.22l-4.67,2.1-18.68,8.39c-3.11,1.44-6.25,2.73-9.39,4s-6.25,2.66-9.41,3.92q-18.9,7.68-38.14,14.44c-12.84,4.42-25.76,8.63-38.78,12.41s-26.14,7.21-39.33,10.28-26.45,5.66-39.75,7.88-26.66,4-40,5.26-26.72,2-40,2.2a376.11,376.11,0,0,1-39.55-1.49c-6.53-.58-13-1.45-19.34-2.42l-4.75-.85c-1.57-.29-3.17-.53-4.71-.89-3.11-.68-6.25-1.29-9.28-2.11-12.22-3-23.9-7.19-33.8-12.69s-17.64-12.5-21.21-19.56a25.7,25.7,0,0,1-2.9-11.06,36.21,36.21,0,0,1,2.23-13,75.5,75.5,0,0,1,7-14.33c1.62-2.39,3.11-4.81,5-7.17l1.33-1.78c.43-.6.89-1.19,1.39-1.77l2.92-3.5c.93-1.19,2-2.31,3.07-3.46l3.14-3.43,3.34-3.34c1.13-1.11,2.18-2.26,3.39-3.33,4.63-4.37,9.47-8.64,14.52-12.76l3.82-3.08c1.26-1,2.54-2.05,3.87-3,2.64-2,5.22-4,7.91-5.93l8.11-5.76,8.66-6q34.66-24.21,68.37-50c22.4-17.28,44.45-35.11,65.84-53.88q16-14.07,31.57-28.84c2.59-2.45,5.15-4.94,7.71-7.44s5.07-5,7.59-7.55l7.55-7.59c2.5-2.54,4.94-5.14,7.41-7.7s4.94-5.13,7.37-7.73l7.24-7.83c4.87-5.19,9.54-10.54,14.31-15.8,9.41-10.62,19.42-20.73,28.83-31.35a214.79,214.79,0,0,0,25.1-34.38c1.79-3.1,3.48-6.27,5-9.55s3-6.62,4.25-10.11a100.8,100.8,0,0,0,3.35-10.73,72.32,72.32,0,0,0,2-11.68,8.28,8.28,0,0,0-11.29-8.37l-.31.13a77.56,77.56,0,0,0-10.3,5.23q-4.82,2.85-9.19,6a149.43,149.43,0,0,0-16.25,13.53,294.54,294.54,0,0,0-27.46,30.77l-12.58,16.31c-4.26,5.39-8.59,10.71-13.13,15.85s-9.1,10.25-13.78,15.24l-7,7.53c-2.33,2.5-4.71,4.94-7.07,7.42s-4.71,4.95-7.1,7.38l-7.21,7.25c-2.4,2.41-4.79,4.84-7.24,7.2s-4.88,4.75-7.35,7.1q-14.79,14.11-30.24,27.62c-20.56,18.05-41.92,35.33-63.72,52.13s-44.14,33-66.79,48.82l-8.5,5.93-9,6.36c-3,2.14-5.89,4.42-8.83,6.62-1.48,1.1-2.93,2.25-4.37,3.42l-4.34,3.49q-8.62,7.07-16.9,14.87c-1.4,1.26-2.72,2.66-4.08,4l-4,4.07-3.93,4.28c-1.3,1.44-2.63,2.82-3.87,4.37l-3.78,4.54c-.64.74-1.25,1.53-1.84,2.34l-1.81,2.41c-2.45,3.13-4.67,6.62-6.93,10a117.2,117.2,0,0,0-11.24,23.24,78.43,78.43,0,0,0-4.47,28.07,68.57,68.57,0,0,0,7.52,29.12,80.22,80.22,0,0,0,17.37,22.45,107.86,107.86,0,0,0,21,15c14.52,8,29.44,13.14,44.26,16.84,3.72,1,7.42,1.72,11.14,2.53,1.85.42,3.7.7,5.56,1l5.56,1c7.4,1.14,14.8,2.12,22.18,2.78a420.22,420.22,0,0,0,44.06,1.68c14.6-.18,29.12-1,43.54-2.39s28.76-3.25,43-5.64,28.34-5.21,42.35-8.41,27.88-6.91,41.66-10.88,27.4-8.43,40.94-13.11,26.9-9.81,40.15-15.19c3.32-1.32,6.6-2.75,9.9-4.13s6.61-2.74,9.84-4.23l19.49-8.77,4.88-2.19c1.63-.72,3.21-1.54,4.81-2.3l9.6-4.66,9.6-4.66,4.8-2.34,4.73-2.45,18.92-9.82c3.17-1.61,6.25-3.37,9.37-5.07l9.33-5.12c3.12-1.7,6.23-3.42,9.36-5.09l9.29-5.19c6.2-3.45,12.44-6.84,18.62-10.33l18.47-10.58c6.14-3.57,12.17-7.31,18.2-11.05s11.9-7.73,17.76-11.73,11.59-8.2,17.24-12.49c2.83-2.14,5.67-4.27,8.43-6.51s5.55-4.44,8.27-6.74c5.47-4.53,10.66-9.47,15.73-14.52a199.49,199.49,0,0,0,14.38-16.23c2.27-2.85,4.47-5.79,6.56-8.87,1-1.54,2.07-3.07,3.05-4.7s1.95-3.22,2.86-5a7.72,7.72,0,0,0-8.86-11Z"/><path class="cls-2" d="M1986,1723.18a85.74,85.74,0,0,0-5.91,13.57A134.9,134.9,0,0,0,1976,1751a145.73,145.73,0,0,0-3.63,29.54,138.55,138.55,0,0,0,2.59,30.21,122.1,122.1,0,0,0,9.75,29.49c.55,1.19,1.17,2.35,1.79,3.52s1.22,2.33,1.89,3.47c1.3,2.29,2.73,4.52,4.17,6.74a105,105,0,0,0,9.89,12.46,97.89,97.89,0,0,0,24.84,19.4c1.13.63,2.27,1.26,3.46,1.8s2.32,1.15,3.5,1.68c2.39,1,4.74,2,7.18,2.86a98.64,98.64,0,0,0,14.68,4c2.49.42,4.94.9,7.44,1.14,1.24.12,2.48.28,3.72.38s2.48.14,3.72.2c2.47.17,5,0,7.43,0s4.94-.32,7.39-.62c-2.18-1.24-4.37-2.26-6.51-3.4l-3.2-1.66-1.59-.81-1.57-.86c-1-.56-2.07-1.14-3.11-1.67s-2-1.15-3-1.73c-2-1.11-4-2.31-6-3.49-3.89-2.41-7.67-4.82-11.24-7.44s-7-5.28-10.24-8.1a121.79,121.79,0,0,1-30.17-39.73c-7.33-15.13-12.1-31.94-15.56-49.6-1.72-8.83-3.14-17.88-4.34-27.13-.64-4.63-1.16-9.31-1.71-14.05Z"/><path class="cls-2" d="M1902.44,1810.23a85.45,85.45,0,0,0-5.91,13.58,133.54,133.54,0,0,0-4.08,14.22,145.64,145.64,0,0,0-3.63,29.54,138.46,138.46,0,0,0,2.59,30.2,122.1,122.1,0,0,0,9.75,29.49c.55,1.19,1.17,2.36,1.78,3.52s1.23,2.33,1.9,3.47c1.3,2.29,2.73,4.53,4.17,6.74a105,105,0,0,0,9.89,12.46,97.89,97.89,0,0,0,24.84,19.4c1.13.64,2.27,1.26,3.45,1.81s2.33,1.14,3.51,1.68c2.39,1,4.74,2,7.18,2.85a97.16,97.16,0,0,0,14.68,4c2.49.41,4.94.89,7.44,1.13,1.24.13,2.48.28,3.72.38s2.48.15,3.72.2c2.46.17,5,.06,7.42,0s4.94-.31,7.4-.62c-2.18-1.23-4.37-2.26-6.51-3.39l-3.2-1.67-1.59-.81-1.57-.85c-1-.57-2.07-1.14-3.11-1.67s-2-1.16-3-1.73c-2-1.12-4-2.31-6-3.5-3.89-2.41-7.68-4.82-11.24-7.44s-7-5.28-10.24-8.1a121.76,121.76,0,0,1-30.17-39.72c-7.33-15.13-12.1-32-15.56-49.6-1.72-8.84-3.14-17.89-4.34-27.14-.64-4.63-1.16-9.3-1.71-14Z"/><path class="cls-2" d="M1825.48,1878.14a85.74,85.74,0,0,0-5.91,13.57,132.5,132.5,0,0,0-4.07,14.22,145.74,145.74,0,0,0-3.64,29.54,138.6,138.6,0,0,0,2.59,30.21,122.83,122.83,0,0,0,9.75,29.49c.55,1.19,1.17,2.35,1.79,3.51s1.22,2.34,1.89,3.48c1.3,2.29,2.73,4.52,4.17,6.74a106.67,106.67,0,0,0,9.89,12.46,95.08,95.08,0,0,0,11.69,10.75,93.1,93.1,0,0,0,13.15,8.64c1.13.64,2.27,1.27,3.46,1.81s2.33,1.15,3.5,1.68c2.39,1,4.74,2,7.18,2.86a98.64,98.64,0,0,0,14.68,4c2.5.41,4.94.9,7.44,1.13,1.24.13,2.48.28,3.72.38s2.48.15,3.72.21c2.47.17,5,0,7.43,0s4.94-.32,7.39-.62c-2.18-1.24-4.37-2.26-6.51-3.4l-3.2-1.66-1.59-.82-1.56-.85c-1-.57-2.08-1.14-3.12-1.67s-2-1.16-3-1.73c-2-1.11-4-2.31-6-3.49-3.89-2.41-7.67-4.82-11.24-7.44s-7-5.28-10.24-8.1a121.79,121.79,0,0,1-30.17-39.73c-7.33-15.13-12.1-31.95-15.56-49.6-1.72-8.83-3.14-17.89-4.34-27.14-.63-4.62-1.16-9.3-1.71-14Z"/><ellipse class="cls-2" cx="2268.26" cy="1581.91" rx="133" ry="172.4" transform="translate(-44.56 65.89) rotate(-1.65)"/><path class="cls-2" d="M2232.77,1749.74c-71.83-26.55-114.51-123.34-95.15-215.77,10.66-50.92,38.31-92,75.84-112.78,28.3-15.65,60.36-18.17,90.29-7.11,71.83,26.56,114.52,123.35,95.16,215.77-10.67,50.92-38.31,92-75.85,112.79a107.13,107.13,0,0,1-90.29,7.1Zm69.42-331.41c-29.1-10.75-59-8.4-86.54,6.82-36.38,20.12-63.21,60.12-73.6,109.75-18.92,90.32,22.48,184.79,92.29,210.6,29.09,10.75,59,8.39,86.53-6.82,36.38-20.12,63.21-60.13,73.61-109.75C2413.39,1538.61,2372,1444.14,2302.19,1418.33Z"/><ellipse class="cls-5" cx="2313.28" cy="1545.54" rx="35.65" ry="59.47" transform="translate(-74.98 118.59) rotate(-2.89)"/><ellipse class="cls-5" cx="2206.22" cy="1630.39" rx="29.75" ry="17.82" transform="translate(550.77 3817.87) rotate(-89.35)"/><path class="cls-9" d="M1335,1830c-95,74-111,106-251,216-113.8,89.41-191.23,119.76-271,159"/><path class="cls-9" d="M870,2361c144.58,104.66,299,240,734,285"/></svg>