<svg id="Layer_1" data-name="Layer 1" xmlns="http://www.w3.org/2000/svg" viewBox="0 0 4000 4000"><defs><style>.cls-1{fill:#e9fbff;}.cls-2{fill:#000072;}.cls-3{opacity:0.3;}.cls-4{fill:#33aef2;}.cls-5{fill:#fff;}.cls-6{opacity:0.5;}.cls-7{fill:#f7428b;}</style></defs><path class="cls-1" d="M2374.79,2474.22s94.92,3.19,209.4,147.87c24.81,31.4,50.59,69.42,76.49,115.56,110.71,197,214.58,6.7,143.27-257.6q-4.89-18.2-10.94-36.83c-46.61-143.7-164.13-197-164.13-197Z"/><path class="cls-2" d="M2658.71,2738.76c-24.06-42.86-49.73-81.64-76.29-115.27-58.74-74.23-112.1-110.25-146.53-127.4-37.25-18.55-60.94-19.6-61.18-19.61l-5.62-.19,259.38-232.75,1.35.61c.29.13,30.09,13.83,65.15,45a349.87,349.87,0,0,1,100.19,153.39c4.09,12.63,7.78,25.06,11,36.94,21.62,80.12,28.65,159.95,19.8,224.8-8.25,60.45-29.48,101.86-58.26,113.62a45.33,45.33,0,0,1-17.28,3.44C2721,2821.32,2689.07,2792.8,2658.71,2738.76Zm-278.59-266.28c9.06,1.25,29.33,5.43,57.45,19.39,34.91,17.33,89,53.75,148.4,128.82,26.71,33.81,52.51,72.79,76.68,115.85,18.34,32.64,37.07,55.73,55.68,68.63,16.85,11.68,32.87,14.54,47.63,8.52,27.24-11.13,47.46-51.23,55.49-110,8.77-64.26,1.77-143.46-19.69-223-3.17-11.81-6.84-24.17-10.9-36.72a345.42,345.42,0,0,0-98.76-151.29c-30.41-27.05-56.74-40.74-62.83-43.73Z"/><g class="cls-3"><path class="cls-2" d="M2374.79,2474.22s94.92,3.19,209.4,147.87c86.59-41,161.34-93.73,219.76-142q-4.89-18.2-10.94-36.83c-46.61-143.7-164.13-197-164.13-197Z"/></g><path class="cls-2" d="M2750.34,2840.4a64.77,64.77,0,0,0,26.08-5.52c19.64-8.6,35.84-26.53,48.15-53.29,11.12-24.17,18.52-54.31,22-89.6,7.44-75.64-4.37-166.33-33.26-255.37a369,369,0,0,0-105.65-161.74c-37.19-33.06-68.62-47.5-69.94-48.1a21.33,21.33,0,1,0-17.63,38.85c.23.11,27.88,13,60.43,42.22a321.9,321.9,0,0,1,92.21,141.94c27.11,83.57,38.26,168.1,31.38,238-6.7,68.15-28.32,100.76-44.79,108-20.55,9-51.21-17.29-80-68.6-149.46-266.1-297.53-274.08-303.76-274.29l-1.44,42.64h-.22c.32,0,32.82,2.15,81.59,33.72,45.67,29.57,115.13,91.54,186.63,218.84C2683.76,2822.29,2722.49,2840.4,2750.34,2840.4Z"/><path class="cls-4" d="M1862,1667.78s-114.79-204.11-459.41-349.31c-54.23-22.85-109.38,30.67-87.84,85.44,45.92,116.75,107.76,387.57,76.19,472.33"/><g class="cls-3"><path class="cls-5" d="M1391,1876.23l.07,0v-.14A1.34,1.34,0,0,1,1391,1876.23Z"/><polygon class="cls-2" points="1385.88 1881.23 1393.3 1877.6 1393.3 1866.46 1385.88 1881.23"/></g><g class="cls-6"><path class="cls-5" d="M1312.15,1395.86c16.34-25.31,49.4-39.36,82.14-25.56,254.85,107.37,384,247,434,312.39l33.72-14.92s-114.81-204.11-459.4-349.3C1351,1296.74,1298.65,1344.08,1312.15,1395.86Z"/></g><path class="cls-2" d="M1391,1897.58a21.35,21.35,0,0,0,20-13.9c19.68-52.84,6.49-157.23-8-235.51-16.78-90.33-43.58-189.28-68.27-252.07-6.84-17.39-2.94-35.58,10.44-48.64,10.41-10.16,28.81-18,49.26-9.33,173.94,73.29,286.79,161.87,350.83,223.28,69.36,66.51,98,116.36,98.28,116.86a21.33,21.33,0,0,0,37.17-21c-1.23-2.2-31.07-54.57-104.26-125.11-42.58-41-91.27-80-144.72-115.65-66.62-44.49-140.88-84.11-220.73-117.75-33.21-14-69.86-7-95.64,18.11s-33.48,61.4-20.34,94.8c48.8,124.08,103.4,383.62,76,457.07a21.36,21.36,0,0,0,20,28.79Z"/><path class="cls-4" d="M951.85,2115.33s14.52,30.66,53.43,79.15c2,2.47,4,5,6.07,7.5s4.25,5.14,6.52,7.81l3.36,3.95c1.13,1.38,2.32,2.71,3.5,4,3.61,4.15,7.31,8.4,11.21,12.74,2.13,2.28,4.25,4.65,6.37,7q11.34,12.28,24.39,25.47l3.76,3.76q15.18,15.11,32.78,31.2l7.75,7c1.88,1.68,3.81,3.41,5.78,5.14,3.06,2.72,6.22,5.43,9.43,8.25q4,3.41,8.15,7c2,1.73,4.1,3.45,6.17,5.18.1.1.2.15.35.3,1.92,1.58,3.9,3.26,5.92,4.89,9.93,8.19,20.35,16.54,31.26,24.93,1.82,1.43,3.7,2.92,5.63,4.35,3.75,2.86,7.6,5.77,11.5,8.69,2.08,1.53,4.15,3.06,6.27,4.64a1512.54,1512.54,0,0,0,155.24,99.94c3.06,1.68,6.13,3.4,9.19,5.13q30.06,16.66,62.85,33.28C1891,2750,2441,2620.6,2812.32,2310.51q7.41-6.21,14.81-12.64c10.47-9.13,20.84-18.61,31.06-28.34,3.41-3.26,6.81-6.52,10.17-9.82q21.1-20.67,41.43-42.86c2.66-2.92,5.33-5.88,8.05-8.84a2.41,2.41,0,0,1,.34-.4c3.16-3.55,6.32-7.11,9.43-10.71q5.64-6.37,11.11-12.84c2.67-3.11,5.29-6.22,7.9-9.38,3.16-3.75,6.32-7.56,9.38-11.36,2.62-3.21,5.19-6.42,7.81-9.63,3.6-4.49,7.11-9,10.61-13.48,3.06-3.9,6.08-7.8,9.09-11.75s6-7.9,8.94-11.85,5.92-8,8.88-12q22.52-30.89,43.7-63.1c2.42-3.75,4.84-7.46,7.26-11.21l8.15-12.74c2.66-4.24,5.33-8.49,8-12.79s5.28-8.54,7.9-12.88,5.18-8.59,7.75-12.94,5.13-8.64,7.65-13,5.09-8.74,7.56-13.08,4.84-8.44,7.21-12.69q11.17-20,21.82-40.14,3.26-6.15,6.42-12.3c20.34-39.3,39.11-79,56.09-118.5q2.74-6.37,5.43-12.74l5.33-12.74,5.19-12.74c1.68-4.2,3.36-8.44,5-12.69s3.3-8.44,4.93-12.64q7.26-19,14-37.77c1.53-4.15,3-8.35,4.44-12.5,2.91-8.34,5.73-16.59,8.44-24.83,1.39-4.15,2.72-8.25,4-12.35s2.62-8.19,3.9-12.29q3.78-11.93,7.21-23.65c3.61-12.3,7.06-24.54,10.27-36.59a.38.38,0,0,1,.1-.2q5-19.18,9.43-37.82c25-107.2,31.75-201,16.4-265.55-7.81-32.88-24.4-64.88-50.07-93.72-110.66-124.87-389-191.33-845.13-20.29-653.85,245.2-1136.36,892.53-1399.49,828.79,0,0-38.46-182.3-118.8-301.55-93.62-138.89-163-173.41-228.22-189-34.76-8.25-64,26.61-49.47,59.25,55.79,125.42,77.27,327.47,173.9,439.16,0,0-71,30.22-172.87,166.84C495.71,2278,951.85,2115.33,951.85,2115.33Z"/><g class="cls-6"><path class="cls-5" d="M603.85,1525.66c1.95,4.42,3.87,8.91,5.76,13.51a42.06,42.06,0,0,1,8.83,1.19c65.23,15.58,134.62,50.09,228.24,189,39.91,59.25,69.48,134.06,89.14,194.34,24.88,76.3,110.33,115.11,183.87,83,279.18-121.93,703.37-601.36,1245.25-804.56,456.14-171,734.49-104.59,845.13,20.28,25.68,28.83,42.26,60.84,50.09,93.73,15.35,64.57,8.62,158.33-16.41,265.53-2.9,12.46-6.08,25-9.42,37.85a.22.22,0,0,0-.1.18c-3.23,12.06-6.67,24.3-10.29,36.57-2.24,7.83-4.67,15.72-7.21,23.65-1.26,4.13-2.57,8.22-3.87,12.32s-2.68,8.18-4.06,12.35c-2.71,8.22-5.54,16.47-8.44,24.84-1.44,4.13-2.93,8.33-4.45,12.46-4.49,12.56-9.2,25.13-14,37.77-1.63,4.2-3.25,8.48-5,12.68s-3.33,8.47-5,12.67-3.44,8.48-5.18,12.75-3.55,8.47-5.32,12.71-3.62,8.51-5.44,12.75q-4.29,10-8.76,20c15.61-31.22,30.17-62.65,43.64-93.94,1.81-4.24,3.66-8.51,5.43-12.75s3.55-8.48,5.33-12.75,3.47-8.47,5.17-12.71,3.37-8.44,5-12.71,3.33-8.44,5-12.64q7.23-19,14-37.77c1.52-4.13,3-8.33,4.45-12.5q4.35-12.5,8.44-24.81c1.37-4.16,2.71-8.25,4.05-12.35s2.61-8.22,3.88-12.31c2.53-7.93,5-15.83,7.21-23.65,3.62-12.28,7.06-24.52,10.28-36.58a.31.31,0,0,1,.11-.21c3.33-12.79,6.52-25.35,9.42-37.81,25-107.2,31.76-201,16.4-265.53-7.82-32.89-24.41-64.9-50.08-93.73-110.64-124.87-389-191.33-845.13-20.32-653.84,245.22-1136.34,892.54-1399.48,828.8,0,0-38.46-182.28-118.79-301.54-93.62-138.88-163-173.4-228.23-189C618.55,1458.19,589.33,1493,603.85,1525.66Z"/></g><path class="cls-1" d="M1005.26,2194.49l6.09,7.5c2.13,2.57,4.31,5.14,6.52,7.78,1.08,1.31,2.21,2.65,3.36,3.95s2.32,2.72,3.52,4.06c3.58,4.16,7.28,8.4,11.19,12.75,2.13,2.28,4.24,4.63,6.37,6.95q11.36,12.33,24.41,25.49c1.23,1.16,2.46,2.47,3.73,3.73,3.3,3.3,6.7,6.6,10.18,10q10.75,10.44,22.6,21.26c2.57,2.32,5.14,4.64,7.75,7,1.88,1.66,3.8,3.4,5.79,5.1,3.08,2.72,6.23,5.44,9.42,8.26l8.15,7c2,1.73,4.12,3.47,6.19,5.21a1.94,1.94,0,0,1,.32.29c2,1.56,3.92,3.26,5.94,4.89q14.89,12.27,31.26,24.92c1.81,1.44,3.69,2.93,5.61,4.34,3.77,2.86,7.61,5.8,11.52,8.69l6.26,4.64a1509.48,1509.48,0,0,0,155.26,99.95c3,1.67,6.12,3.41,9.16,5.15q30.11,16.62,62.87,33.28C1891,2750,2441,2620.6,2812.31,2310.53c1.31-1.09,2.61-2.21,3.92-3.3,3.62-3.11,7.27-6.19,10.9-9.34,2.35-2.07,4.7-4.17,7.06-6.27.36-.29.69-.58,1-.87q11.63-10.38,23-21.22c3.4-3.26,6.81-6.52,10.18-9.81s6.73-6.67,10.1-10q15.86-16,31.33-32.84c2.64-2.9,5.32-5.87,8-8.84a1.6,1.6,0,0,1,.32-.4c3.19-3.55,6.34-7.1,9.45-10.72,3.73-4.24,7.47-8.51,11.09-12.82,2.68-3.11,5.28-6.23,7.93-9.38,3.15-3.77,6.3-7.57,9.38-11.37,2.61-3.19,5.18-6.41,7.78-9.6,3.63-4.52,7.1-9,10.61-13.51,3.08-3.87,6.09-7.78,9.1-11.73s6-7.9,8.94-11.84,5.9-8,8.87-12q22.54-30.85,43.72-63.08c2.42-3.77,4.81-7.46,7.24-11.23q4.06-6.36,8.15-12.71c2.68-4.28,5.36-8.51,8-12.82s5.29-8.51,7.9-12.86,5.17-8.62,7.75-13,5.14-8.62,7.67-13,5.07-8.76,7.54-13.07,4.85-8.48,7.2-12.72q11.19-20,21.84-40.12c2.17-4.09,4.31-8.22,6.41-12.32,20.36-39.29,39.11-79,56.1-118.49,1.81-4.24,3.66-8.51,5.43-12.75s3.55-8.48,5.33-12.75,3.47-8.47,5.17-12.71,3.37-8.44,5-12.71,3.33-8.44,5-12.64q7.23-19,14-37.77c1.52-4.13,3-8.33,4.45-12.5q4.35-12.5,8.44-24.81c1.37-4.16,2.71-8.25,4.05-12.35s2.61-8.22,3.88-12.31q3.75-11.84,7.21-23.65c3.62-12.28,7.06-24.52,10.28-36.58a.31.31,0,0,1,.11-.21c3.33-12.79,6.52-25.35,9.42-37.81,25-107.2,31.76-201,16.4-265.53-.07-.33-.18-.69-.25-1-17-69.82-74.86-121.72-145.37-135.59-215.67-42.45-418.26,273-622.8,541.13C2060.15,2258.09,1640.16,2418.85,1005.26,2194.49Z"/><g class="cls-3"><path class="cls-2" d="M1080.63,2276.66q10.75,10.44,22.6,21.26c2.57,2.32,5.14,4.64,7.75,7,1.88,1.66,3.8,3.4,5.79,5.1,3.08,2.72,6.23,5.44,9.42,8.26l8.15,7c2,1.73,4.12,3.47,6.19,5.21a1.94,1.94,0,0,1,.32.29c2,1.56,3.92,3.26,5.94,4.89q14.89,12.27,31.26,24.92c1.81,1.44,3.69,2.93,5.61,4.34,3.77,2.86,7.61,5.8,11.52,8.69l6.26,4.64a1509.48,1509.48,0,0,0,155.26,99.95c3,1.67,6.12,3.41,9.16,5.15q30.11,16.62,62.87,33.28C1891,2750,2441,2620.6,2812.31,2310.53c1.31-1.09,2.61-2.21,3.92-3.3,1.15-1,2.31-2,3.47-3q7.77-6.73,14.49-12.6c.36-.29.69-.58,1-.87,36.65-31.87,49.76-43.38,43.28-41.07-32.12,11.48-547,364.73-1059.78,269.3C1546.76,2468.39,1323.76,2434.15,1080.63,2276.66Z"/></g><path class="cls-2" d="M1419.14,2535.64c-87.1-44-166.74-92.73-236.72-144.94-56.18-41.91-106.32-86.15-149-131.47-50.29-53.37-78.44-95.68-91.56-117.84-28.52,9.72-88.67,29.53-150.69,45.83-50.64,13.32-92.81,21.77-125.33,25.14-49.34,5.09-77.54-1-91.44-19.84-13.7-18.55-9.19-43.32,13.41-73.63,43.33-58.08,86.5-104.67,128.33-138.47,10.26-8.29,20.14-15.55,29.49-21.69-54.5-74-83-174-110.57-270.92-16.11-56.57-31.32-110-50.66-153.48a64.34,64.34,0,0,1,73.89-88.66c66.61,15.86,141.9,50.8,241,197.78,69.69,103.4,108,249.54,118.85,295.15,52.9,7.46,120-14.54,209.65-68.47,91.6-55.12,194.81-136.08,314.32-229.82,116.12-91.07,247.73-194.3,389.44-288.68,163.35-108.79,314.1-188.43,460.85-243.46,173.09-64.91,331.32-99.93,470.29-104.09,62.43-1.86,120.83,2.6,173.56,13.28,49.61,10,94.39,25.59,133.11,46.22,77.75,41.42,129.79,103.08,146.53,173.62,13.66,57.56,11.18,137.86-7.17,232.23-17.9,92-50.27,194.88-93.62,297.45-45.55,107.8-102.66,213.53-165.16,305.77-69.7,102.87-145,188.42-223.88,254.26a1445.82,1445.82,0,0,1-312.46,198.77c-114.59,53.76-234.12,91.68-355.27,112.7a1279.16,1279.16,0,0,1-218.74,19.09C1755.94,2657.47,1579.06,2616.39,1419.14,2535.64ZM2863.89,1046.73c-134.28,4-287.9,38.13-456.59,101.39-323.07,121.15-609.1,345.5-838.93,525.77-120.63,94.61-224.8,176.32-318.66,232.8-107.17,64.5-188,87-254.4,71l-13.07-3.17-2.78-13.15c-.37-1.79-38.58-179.7-115.63-294-95.41-141.57-161.24-167.2-215.45-180.11a21.49,21.49,0,0,0-21.94,7.27,21,21,0,0,0-3.09,22.54c20.57,46.23,36.19,101.07,52.72,159.14,28.92,101.55,58.82,206.56,117.8,274.75l30.52,35.29H782.75c-15,8.06-77,45.92-160.77,158.24-10.05,13.47-12.12,20.52-12.53,23.1,3.43,1.81,16.95,6.63,58,1.73,30.61-3.65,70.2-11.91,117.66-24.55,81.71-21.75,158.84-49.16,159.61-49.43l18.16-6.53,8.27,17.45c.24.51,25.36,52.08,95.14,125.7,64.51,68.07,181.43,169.4,372.12,265.67,480.72,242.7,1029.57,72.73,1360.26-203.39,144.6-120.73,282-319,377.09-543.89,42.21-99.89,73.69-199.82,91-289,17.2-88.46,19.81-162.53,7.54-214.22-13.87-58.46-58.29-110.25-125.07-145.82-67.68-36.06-157-54.89-259.58-54.89Q2876.89,1046.35,2863.89,1046.73Z"/><path class="cls-7" d="M2983.66,1788c20.55-9.4,42.51,10,35.93,31.61-27.23,89.55-116.64,236.83-263.44,237-172.16.23-235.63-163.88-239.64-252.51-.93-20.57,21-34.27,38.9-24,65.09,37.31,145.83,59,202.44,60.86C2826.72,1843.1,2906.26,1823.35,2983.66,1788Z"/><path class="cls-2" d="M2561.56,1972.17c-40.84-56.13-57.53-123.3-59.52-167.45a40.79,40.79,0,0,1,19.49-36.69,39.84,39.84,0,0,1,41.08-.56c67.24,38.55,146.74,57.38,195.71,59,64.12,2.06,142-16.29,219.31-51.64h0a40.74,40.74,0,0,1,55.82,49c-16.94,55.71-50.61,114.62-90.07,157.6-24.94,27.16-52.29,48.54-81.31,63.55a229.14,229.14,0,0,1-105.9,26.14h-.37C2654.75,2071.07,2594.39,2017.31,2561.56,1972.17Zm428.12-171.05c-78.09,35.72-154.25,54.44-221.12,54.44-3.75,0-7.48-.06-11.17-.18-64.14-2.05-146.25-26.7-209.19-62.78a11.13,11.13,0,0,0-11.58.17,11.57,11.57,0,0,0-5.64,10.64c4.17,92.33,68.9,238.69,224.83,238.69h.32c142.95-.19,225.78-148.41,249.6-226.75a11.93,11.93,0,0,0-11.12-15.36A11.85,11.85,0,0,0,2989.68,1801.12Z"/><path class="cls-5" d="M2548.89,1777.34l19.16,88.13a11.73,11.73,0,0,0,13.14,9.11l57.76-8.39a15.18,15.18,0,0,1,13.74,5.19l27.14,31.9a23.38,23.38,0,0,0,27.29,6.22l57.63-25.56a15.19,15.19,0,0,1,12.78.22l51.38,24.93a23.89,23.89,0,0,0,27.49-4.76l27-27.51a15.2,15.2,0,0,1,17.63-2.94l22.16,11.1a25,25,0,0,0,33-10.16l48.66-87.16a25.61,25.61,0,0,0-21.18.3c-77.38,35.4-156.92,55.15-225.8,52.93-56.64-1.82-137.37-23.55-202.45-60.88A26.6,26.6,0,0,0,2548.89,1777.34Z"/><path class="cls-2" d="M2827.92,1911.13l-51.38-24.93a12.93,12.93,0,0,0-10.88-.19L2708,1911.57a25.8,25.8,0,0,1-29.94-6.82l-27.13-31.9a12.86,12.86,0,0,0-11.7-4.42l-57.76,8.39a14,14,0,0,1-15.67-10.87l-20-91.75,3.59,1a28.44,28.44,0,0,1,7.06,2.89c59.76,34.28,140.69,58.62,201.39,60.58,66.94,2.15,144.68-16.07,224.78-52.73a27.88,27.88,0,0,1,23-.31l2.29,1-49.88,89.35a27.17,27.17,0,0,1-36,11.07L2900,1875.91a12.89,12.89,0,0,0-15,2.5l-27,27.51a26.15,26.15,0,0,1-30.1,5.21Zm74.15-39.27,22.16,11.09a22.65,22.65,0,0,0,30-9.23l47.38-84.86a23.43,23.43,0,0,0-17,1.16c-80.74,36.94-159.17,55.32-226.82,53.13-61.37-2-143.15-26.56-203.51-61.18a22.71,22.71,0,0,0-2.31-1.17l18.3,84.19a9.49,9.49,0,0,0,10.6,7.35l57.76-8.39a17.34,17.34,0,0,1,15.8,6l27.13,31.89a21.23,21.23,0,0,0,24.65,5.62l57.63-25.56a17.43,17.43,0,0,1,14.69.26l51.38,24.92a21.64,21.64,0,0,0,24.89-4.3l27-27.51a17.38,17.38,0,0,1,20.26-3.38Z"/><path class="cls-2" d="M2822.59,1922.12l-51.38-24.92a.68.68,0,0,0-.59,0L2713,1922.75a38.1,38.1,0,0,1-44.2-10.08l-27.13-31.9a.73.73,0,0,0-.63-.24l-57.76,8.38a26.28,26.28,0,0,1-29.35-20.28l-21.59-95,9.7-5.22c3.46-1.87,12.42-5.69,20.59-.94,67.19,38.54,146.71,57.38,195.7,59,64.14,2.08,142-16.26,219.29-51.61a40.35,40.35,0,0,1,22.36-3.4,19.45,19.45,0,0,1,14.77,10.6,19.68,19.68,0,0,1-.42,18.4l-45.49,81.48a39.39,39.39,0,0,1-52.1,16l-22.16-11.09a.7.7,0,0,0-.81.13l-27,27.52a38.36,38.36,0,0,1-44.15,7.63Zm-38.74-51,51.38,24.93a9.43,9.43,0,0,0,10.84-1.88l27-27.51a29.59,29.59,0,0,1,34.44-5.74L2929.7,1872a10.46,10.46,0,0,0,13.83-4.26l34.22-61.29c-78.25,34.15-154.2,51-220.36,48.9-57.34-1.85-129-21.72-188.52-51.69l12.77,56.2,55.22-8a29.51,29.51,0,0,1,26.87,10.14l27.13,31.89a9,9,0,0,0,10.39,2.37l57.62-25.56a29.64,29.64,0,0,1,25,.43Zm-235.59-78.52-.13-.07Z"/><path class="cls-5" d="M2566.67,1954.21c20,30,46.51,57.13,80.73,75.84,30.07,16.55,66.07,26.57,108.78,26.52,48.14-.05,90.11-16,125.76-40.44a.15.15,0,0,1,.1-.05c22.22-15.31,41.92-33.92,59.15-54.12-10.56-9.38-19.3-18.17-32-31.79-3.41-3.71-9-2.37-13.14,2.91-15.5,20.1-23.9,29-41.57,44.49-3.95,3.45-8.69,4.24-12.4,2.17a180.42,180.42,0,0,1-28.39-19.11c-6.61-5.28-15.21-4.49-21.82,1.88-16.15,15.5-25,22.32-43.9,33.38a10.28,10.28,0,0,1-10.62-.1c-16.93-10.22-24.88-16.4-39.55-30.22-6.56-6.22-15-7.06-21.77-2.08a170.36,170.36,0,0,1-26.66,16.64c-4.74,2.47-10.92.3-14.82-5.33-5.92-8.44-8.74-12.84-14.12-21.82-7.21-12-19-17.28-28-12A250.65,250.65,0,0,1,2566.67,1954.21Z"/><path class="cls-2" d="M2646.31,2032c-31.85-17.42-59.28-43.19-81.52-76.57l-1.51-2.26,2.49-1.08a242.67,242.67,0,0,0,25.49-13.16c10.09-5.84,23.18-.44,31.12,12.84,5.56,9.28,8.31,13.54,14,21.7,3.19,4.61,8.2,6.55,11.91,4.62a168.43,168.43,0,0,0,26.37-16.46c7.61-5.61,17.3-4.73,24.67,2.25,14.9,14,22.58,19.92,39.18,29.94a8,8,0,0,0,8.29.07c18.59-10.87,27.12-17.36,43.47-33,7.41-7.14,17.38-8,24.8-2a177.65,177.65,0,0,0,28.09,18.91c2.87,1.6,6.62.87,9.8-1.91,17.77-15.54,25.87-24.21,41.27-44.17,2.79-3.59,6.38-5.73,9.86-5.88a8.55,8.55,0,0,1,6.72,2.81c13.24,14.21,21.87,22.79,31.84,31.65l1.66,1.47-1.44,1.69c-18.49,21.67-38.54,40-59.59,54.51l-.58.4h0c-39.24,26.83-81.8,40.45-126.53,40.49h-.31C2715.49,2058.83,2678.63,2049.82,2646.31,2032Zm234.62-18c20.12-13.88,39.32-31.34,57.1-51.92-9.41-8.45-17.89-16.93-30.5-30.47a4,4,0,0,0-3.21-1.37c-2.11.09-4.53,1.64-6.47,4.13-15.43,20-24,29.22-41.87,44.81-4.66,4.08-10.41,5-15,2.44a182,182,0,0,1-28.69-19.31c-5.66-4.52-13.06-3.83-18.85,1.74-16.46,15.81-25.57,22.74-44.33,33.71a12.52,12.52,0,0,1-12.91-.12c-16.72-10.09-24.93-16.37-39.94-30.52-5.79-5.48-13-6.21-18.88-1.89a173.5,173.5,0,0,1-27,16.82c-5.76,3-13.21.46-17.71-6-5.8-8.26-8.59-12.57-14.21-22-6.62-11.07-17.12-15.8-25-11.25a263.31,263.31,0,0,1-23.46,12.3c21.56,31.69,47.93,56.2,78.43,72.88,31.65,17.41,67.77,26.24,107.38,26.24h.3c44,0,85.82-13.5,124.42-40Z"/><path class="cls-2" d="M2640.45,2042.76c-33.61-18.38-62.49-45.47-85.84-80.52l-9.62-14.45,15.94-6.88a231.34,231.34,0,0,0,24.2-12.52c15.87-9.19,36.39-1.82,47.74,17.14,5.16,8.62,7.82,12.75,13,20.1a153.49,153.49,0,0,0,21.62-13.79c12.43-9.16,28.64-7.87,40.31,3.19,13.48,12.71,20.73,18.36,35,27.1,16.14-9.55,24.18-15.79,39-30.06,11.84-11.4,28.67-12.54,40.88-2.79a161.39,161.39,0,0,0,23.59,16.2c16.13-14.18,23.88-22.57,38.32-41.28,5-6.44,11.91-10.3,19-10.6a20.54,20.54,0,0,1,16.19,6.69c13.11,14.08,21.22,22.15,31,30.84l10.62,9.43-9.22,10.81c-19.18,22.48-40,41.53-61.95,56.64l-3.71,2.56h-.1c-40.43,26.82-84.23,40.44-130.26,40.49h-.32C2713.41,2071.06,2674.57,2061.53,2640.45,2042.76Zm233.29-38.57.52-.35a285.62,285.62,0,0,0,46.66-40.88c-5.1-4.9-10.38-10.26-16.63-16.86-14.06,18-23,27.28-40.26,42.37-8.53,7.47-19.92,9-29,3.9a193.53,193.53,0,0,1-30.34-20.42c-.32-.26-.93-.75-2.75,1-17.29,16.6-26.88,23.89-46.62,35.43l-.1.06a24.86,24.86,0,0,1-25.31-.26c-17.61-10.63-26.24-17.22-42-32.1-2-1.86-2.68-1.33-3.22-.93a185.7,185.7,0,0,1-28.56,17.82c-11.3,5.89-25.35,1.71-33.36-9.86-6.35-9-9.37-13.8-14.7-22.7-3.61-6-7.71-7.33-8.39-6.94-4.1,2.36-7.79,4.42-11.22,6.26,18.8,24.58,40.93,43.92,66,57.62,29.83,16.41,64,24.72,101.49,24.72h.29c41.48,0,81-12.79,117.58-37.89Zm16.4,23.88-.12.09.25-.18Zm-145.22-44.64,0,0Zm162.83-41.75Zm-9.15-1.64-.07-.07Z"/><ellipse class="cls-2" cx="3144.96" cy="1474.91" rx="33.19" ry="22.69" transform="translate(1122.82 4299.29) rotate(-79.52)"/><ellipse class="cls-2" cx="3001.02" cy="1448.3" rx="33.19" ry="22.69" transform="translate(1031.22 4135.97) rotate(-79.52)"/><path class="cls-1" d="M2225.88,2490.76s-30.3,150.7-107.63,298c-152.24,290.07-407.19,372.33-333.89,122.41,31.93-108.91,43.93-181,49.27-228.43,11.08-98.47,5-194.8,5-194.8"/><g class="cls-3"><path class="cls-2" d="M2122.77,2770.72c54.58-104,85.76-209.73,99.34-262.89-26.11,50.16-78.79,160-121.53,222.25C1984.88,2898.66,1847.3,3005,1787.19,2899,1719.62,3141.71,1971.75,3058.45,2122.77,2770.72Z"/></g><path class="cls-2" d="M2218.91,2489.36a170.11,170.11,0,0,0-11.26,18.54c-.87,1.56-1.63,3.15-2.44,4.71s-1.61,3.15-2.37,4.73c-1.55,3.15-3,6.32-4.41,9.5s-2.8,6.37-4.09,9.57l-1.91,4.82c-.64,1.6-1.27,3.21-1.87,4.82-1.24,3.22-2.38,6.46-3.51,9.71l-3.46,9.71-1.71,4.86-1.64,4.87-3.33,9.74c-1.13,3.24-2.15,6.51-3.23,9.77l-1.56,4.9-1.62,4.88c-2.14,6.52-4.15,13.07-6.22,19.62l-6.39,19.56c-8.69,26-19,51.49-30.18,76.47l-2.05,4.71-2.18,4.64-4.35,9.29-4.35,9.29c-.74,1.54-1.42,3.11-2.2,4.63l-2.31,4.57-9.23,18.29c-1.51,3.07-3.14,6-4.75,9s-3.18,6-4.85,9q-9.86,17.86-20.55,35.22c-7.19,11.52-14.58,22.92-22.32,34.06s-15.78,22-24.1,32.73-17,21-25.93,31.15-18.2,19.88-27.78,29.27-19.49,18.4-29.72,26.9a378.66,378.66,0,0,1-31.68,23.73c-5.43,3.66-11,7-16.55,10.29l-4.22,2.33c-1.41.76-2.8,1.58-4.23,2.28-2.84,1.42-5.66,2.92-8.53,4.19-11.4,5.35-23.1,9.46-34.26,11.42s-21.57,1.39-28.79-1.85a25.79,25.79,0,0,1-9.21-6.78,36.3,36.3,0,0,1-6.47-11.52,75,75,0,0,1-3.57-15.54c-.24-2.88-.61-5.7-.64-8.71l-.09-2.22c0-.74-.06-1.48,0-2.25l.06-4.56c0-1.5.13-3.07.21-4.61l.28-4.64.49-4.71c.18-1.57.28-3.13.54-4.71q1.28-9.48,3.25-19.06l1-4.79c.33-1.6.68-3.2,1.1-4.79.81-3.2,1.54-6.4,2.41-9.59l2.67-9.58,2.93-10.16q11.7-40.62,21.68-81.86c6.54-27.52,12.45-55.26,17.26-83.31q3.61-21,6.38-42.27c.47-3.54.9-7.09,1.31-10.64s.78-7.09,1.15-10.64l1.08-10.66c.35-3.55.61-7.09.91-10.64s.62-7.1.87-10.65l.7-10.64c.52-7.1.78-14.19,1.18-21.28.62-14.18,2-28.33,2.67-42.51a214.89,214.89,0,0,0-2.14-42.52c-.55-3.53-1.24-7.06-2.1-10.58s-1.84-7-3.06-10.52a102.83,102.83,0,0,0-4.15-10.46,72,72,0,0,0-5.77-10.35,8.28,8.28,0,0,0-14,.6l-.16.29a77.19,77.19,0,0,0-4.71,10.54c-1.3,3.51-2.43,7-3.36,10.47a147.8,147.8,0,0,0-4.11,20.73,293.39,293.39,0,0,0-2,41.2l.49,20.59c.08,6.87.07,13.73-.23,20.58s-.62,13.69-1.12,20.51l-.67,10.24c-.24,3.41-.55,6.81-.83,10.22s-.54,6.81-.87,10.2l-1,10.17c-.35,3.39-.67,6.78-1.09,10.16s-.8,6.76-1.25,10.14q-2.61,20.28-6.11,40.5c-4.62,27-10.35,53.84-16.71,80.61s-13.54,53.43-21.18,80l-2.87,10-3,10.58c-1,3.53-1.8,7.14-2.7,10.7-.46,1.78-.86,3.59-1.24,5.41l-1.18,5.44q-2.26,10.92-3.77,22.19c-.3,1.86-.44,3.79-.66,5.68l-.58,5.71-.36,5.8c-.11,1.94-.27,3.85-.27,5.83l-.07,5.91c0,1,0,2,0,3l.11,3c.07,4,.53,8.08.92,12.15a117.45,117.45,0,0,0,5.9,25.14,78.39,78.39,0,0,0,14.19,24.63,68.62,68.62,0,0,0,24.17,17.89,80.23,80.23,0,0,0,27.63,6.51,107.82,107.82,0,0,0,25.79-1.6c16.34-2.9,31.14-8.32,45-14.77,3.51-1.57,6.85-3.33,10.24-5.05,1.71-.83,3.33-1.78,5-2.68L1914,3054c6.47-3.77,12.85-7.67,19-11.8a419,419,0,0,0,35.3-26.42c11.23-9.33,22-19.12,32.33-29.26s20.3-20.63,29.84-31.43,18.75-21.88,27.62-33.18,17.32-22.92,25.53-34.68,16-23.8,23.56-36,14.73-24.55,21.64-37.08c1.75-3.12,3.4-6.29,5.1-9.44s3.4-6.29,5-9.48l9.63-19.08,2.41-4.77c.81-1.59,1.52-3.22,2.29-4.82l4.53-9.66,4.53-9.67,2.26-4.83,2.13-4.89,8.52-19.54c1.45-3.24,2.74-6.55,4.09-9.83l4-9.86c1.36-3.28,2.68-6.57,4.07-9.84l4-9.88c2.64-6.58,5.36-13.14,8-19.74L2207,2639c2.52-6.64,4.86-13.34,7.19-20s4.38-13.5,6.42-20.29,3.85-13.67,5.54-20.56c.85-3.45,1.72-6.89,2.45-10.37s1.52-6.94,2.19-10.44c1.4-7,2.32-14.07,3.08-21.18a199.52,199.52,0,0,0,1-21.66c0-3.65-.18-7.32-.49-11-.16-1.86-.33-3.7-.58-5.58s-.52-3.72-.92-5.68a7.73,7.73,0,0,0-9.12-6,7.63,7.63,0,0,0-4.7,3Z"/><path class="cls-2" d="M1986,1723.18a85.74,85.74,0,0,0-5.91,13.57A134.9,134.9,0,0,0,1976,1751a145.73,145.73,0,0,0-3.63,29.54,138.55,138.55,0,0,0,2.59,30.21,122.1,122.1,0,0,0,9.75,29.49c.55,1.19,1.17,2.35,1.79,3.52s1.22,2.33,1.89,3.47c1.3,2.29,2.73,4.52,4.17,6.74a105,105,0,0,0,9.89,12.46,97.89,97.89,0,0,0,24.84,19.4c1.13.63,2.27,1.26,3.46,1.8s2.32,1.15,3.5,1.68c2.39,1,4.74,2,7.18,2.86a98.64,98.64,0,0,0,14.68,4c2.49.42,4.94.9,7.44,1.14,1.24.12,2.48.28,3.72.38s2.48.14,3.72.2c2.47.17,5,0,7.43,0s4.94-.32,7.39-.62c-2.18-1.24-4.37-2.26-6.51-3.4l-3.2-1.66-1.59-.81-1.57-.86c-1-.56-2.07-1.14-3.11-1.67s-2-1.15-3-1.73c-2-1.11-4-2.31-6-3.49-3.89-2.41-7.67-4.82-11.24-7.44s-7-5.28-10.24-8.1a121.79,121.79,0,0,1-30.17-39.73c-7.33-15.13-12.1-31.94-15.56-49.6-1.72-8.83-3.14-17.88-4.34-27.13-.64-4.63-1.16-9.31-1.71-14.05Z"/><path class="cls-2" d="M1902.44,1810.23a85.45,85.45,0,0,0-5.91,13.58,133.54,133.54,0,0,0-4.08,14.22,145.64,145.64,0,0,0-3.63,29.54,138.46,138.46,0,0,0,2.59,30.2,122.1,122.1,0,0,0,9.75,29.49c.55,1.19,1.17,2.36,1.78,3.52s1.23,2.33,1.9,3.47c1.3,2.29,2.73,4.53,4.17,6.74a105,105,0,0,0,9.89,12.46,97.89,97.89,0,0,0,24.84,19.4c1.13.64,2.27,1.26,3.45,1.81s2.33,1.14,3.51,1.68c2.39,1,4.74,2,7.18,2.85a97.16,97.16,0,0,0,14.68,4c2.49.41,4.94.89,7.44,1.13,1.24.13,2.48.28,3.72.38s2.48.15,3.72.2c2.46.17,5,.06,7.42,0s4.94-.31,7.4-.62c-2.18-1.23-4.37-2.26-6.51-3.39l-3.2-1.67-1.59-.81-1.57-.85c-1-.57-2.07-1.14-3.11-1.67s-2-1.16-3-1.73c-2-1.12-4-2.31-6-3.5-3.89-2.41-7.68-4.82-11.24-7.44s-7-5.28-10.24-8.1a121.76,121.76,0,0,1-30.17-39.72c-7.33-15.13-12.1-32-15.56-49.6-1.72-8.84-3.14-17.89-4.34-27.14-.64-4.63-1.16-9.3-1.71-14Z"/><path class="cls-2" d="M1825.48,1878.14a85.74,85.74,0,0,0-5.91,13.57,132.5,132.5,0,0,0-4.07,14.22,145.74,145.74,0,0,0-3.64,29.54,138.6,138.6,0,0,0,2.59,30.21,122.83,122.83,0,0,0,9.75,29.49c.55,1.19,1.17,2.35,1.79,3.51s1.22,2.34,1.89,3.48c1.3,2.29,2.73,4.52,4.17,6.74a106.67,106.67,0,0,0,9.89,12.46,95.08,95.08,0,0,0,11.69,10.75,93.1,93.1,0,0,0,13.15,8.64c1.13.64,2.27,1.27,3.46,1.81s2.33,1.15,3.5,1.68c2.39,1,4.74,2,7.18,2.86a98.64,98.64,0,0,0,14.68,4c2.5.41,4.94.9,7.44,1.13,1.24.13,2.48.28,3.72.38s2.48.15,3.72.21c2.47.17,5,0,7.43,0s4.94-.32,7.39-.62c-2.18-1.24-4.37-2.26-6.51-3.4l-3.2-1.66-1.59-.82-1.56-.85c-1-.57-2.08-1.14-3.12-1.67s-2-1.16-3-1.73c-2-1.11-4-2.31-6-3.49-3.89-2.41-7.67-4.82-11.24-7.44s-7-5.28-10.24-8.1a121.79,121.79,0,0,1-30.17-39.73c-7.33-15.13-12.1-31.95-15.56-49.6-1.72-8.83-3.14-17.89-4.34-27.14-.63-4.62-1.16-9.3-1.71-14Z"/><ellipse class="cls-2" cx="2268.26" cy="1581.91" rx="133" ry="172.4" transform="translate(-44.56 65.89) rotate(-1.65)"/><path class="cls-2" d="M2232.77,1749.74c-71.83-26.55-114.51-123.34-95.15-215.77,10.66-50.92,38.31-92,75.84-112.78,28.3-15.65,60.36-18.17,90.29-7.11,71.83,26.56,114.52,123.35,95.16,215.77-10.67,50.92-38.31,92-75.85,112.79a107.13,107.13,0,0,1-90.29,7.1Zm69.42-331.41c-29.1-10.75-59-8.4-86.54,6.82-36.38,20.12-63.21,60.12-73.6,109.75-18.92,90.32,22.48,184.79,92.29,210.6,29.09,10.75,59,8.39,86.53-6.82,36.38-20.12,63.21-60.13,73.61-109.75C2413.39,1538.61,2372,1444.14,2302.19,1418.33Z"/><ellipse class="cls-5" cx="2313.28" cy="1545.54" rx="35.65" ry="59.47" transform="translate(-74.98 118.59) rotate(-2.89)"/><ellipse class="cls-5" cx="2206.22" cy="1630.39" rx="29.75" ry="17.82" transform="translate(550.77 3817.87) rotate(-89.35)"/></svg>