<svg id="Capa_3" data-name="Capa 3" xmlns="http://www.w3.org/2000/svg" viewBox="0 0 606.62 1697.04"><defs><style>.cls-1{fill:#eeddc7;}.cls-2{fill:#eccaaa;}.cls-3{fill:#e3a87c;}.cls-4{fill:#eed3c0;}.cls-5{fill:#eec7b9;}.cls-6{fill:#ecbea0;}.cls-7{fill:#e39968;}.cls-8{fill:#ecaf91;}.cls-9{fill:#e38f5c;}.cls-10{fill:#fff;}</style></defs><polygon class="cls-1" points="561.21 1628.41 561.21 1587.71 515.04 1587.71 492.79 233.64 493.56 233.64 515.98 205.19 515.98 128.8 553.42 128.8 553.42 0 161.75 0 129.95 0 53.19 0 53.19 128.8 90.63 128.8 90.63 205.19 113.06 233.64 113.83 233.64 91.57 1587.71 45.41 1587.71 45.41 1628.41 0 1628.41 0 1628.41 0 1697.04 291.37 1697.04 393.43 1697.04 606.62 1697.04 606.62 1628.41 561.21 1628.41"/><path class="cls-2" d="M930.36,490.53h343.32V414.15H926.11Q928.15,452.34,930.36,490.53Zm93.71-61.91,118-1.49,59-.72c19.66-.29,39.32,0,59,.4l2.08,0,0,2c-.11,8.1-.44,16.2-.7,24.3s-.66,16.2-1.11,24.3h-.5c-.46-8.1-.88-16.2-1.12-24.3-.23-7.4-.51-14.81-.64-22.21-19,.41-38,.65-57,.36l-59-.71-118-1.49Z" transform="translate(-757.69 -285.35)"/><path class="cls-3" d="M932,519h319.22l22.43-28.46H930.36Q931.17,504.77,932,519Zm49.65-14.48,130.85-1.75c21.81-.26,43.62-.82,65.43-.49s43.62.81,65.43,2.24v.5c-21.81,1.43-43.62,1.79-65.43,2.25s-43.62-.24-65.43-.5L981.68,505Z" transform="translate(-757.69 -285.35)"/><path class="cls-4" d="M942.45,671.78c-.65-8.3-1.19-16.6-1.81-24.9L933,1077.94q4.28,41.71,8.93,83.4,5.64,49.82,11.73,99.59l7.07-399.46Q950,766.82,942.45,671.78Z" transform="translate(-757.69 -285.35)"/><path class="cls-4" d="M1129.44,1873.06Q1108.23,1765,1088,1656.67v157.84a27,27,0,1,1-53.92,0V1359.69q-13.21-76.37-25.48-152.9l-7.4,417.49.54,4c11,81.49,21.22,163.19,32.13,244.78h95.61Z" transform="translate(-757.69 -285.35)"/><path class="cls-4" d="M915.17,562.52a26.92,26.92,0,0,1,20.26,9.82c-1.16-17.78-2.33-35.56-3.4-53.35H892.36q1,26.25,2.32,52.5A26.92,26.92,0,0,1,915.17,562.52Z" transform="translate(-757.69 -285.35)"/><path class="cls-5" d="M1033.8,1873.06h0c-10.91-81.59-21.08-163.29-32.13-244.78l-.54-4-3.37,190.61a27,27,0,1,1-53.91-1l9.79-553q-6-49.77-11.73-99.59-4.71-41.68-8.93-83.4l-13,737a27,27,0,1,1-53.91-1L887.74,589a26.83,26.83,0,0,1,6.94-17.51q-1.24-26.25-2.32-52.5H871.52L849.26,1873.06Z" transform="translate(-757.69 -285.35)"/><path class="cls-6" d="M1061,1841.47a27,27,0,0,0,27-27V589.38a27,27,0,0,0-53.92,0V1814.51A27,27,0,0,0,1061,1841.47Zm9.35-489.25.92-149.82,3.53-599.26h.5l0,599.27,0,149.83-.41,149.81-1.35,149.82-.68,74.91-1.11,74.9h-.5l-.66-74.91-.24-74.91-.45-149.82Z" transform="translate(-757.69 -285.35)"/><path class="cls-6" d="M1129,562.52A27,27,0,0,0,1102.52,590l21.69,1224.94a27,27,0,1,0,53.91-1L1156.43,589A27,27,0,0,0,1129,562.52Zm30.13,1087.76,1,74.8.54,74.82h-.5l-2.32-74.78-1.89-74.79-3.76-149.58-2.84-149.6-2.4-149.6-9.72-598.42h.5l13.21,598.35,3.34,149.59,2.89,149.59Z" transform="translate(-757.69 -285.35)"/><path class="cls-6" d="M1206.83,562.52A27,27,0,0,0,1180.35,590L1202,1814.89a27,27,0,1,0,53.91-1L1234.26,589A27,27,0,0,0,1206.83,562.52Zm26.23,1240.94-1.88-75.12-1.47-75.12L1226.82,1503l-2-150.26-1.52-150.27-6.26-601.08h.5l9.75,601,2.47,150.26,2,150.26,1.11,150.28.54,75.13.11,75.15Z" transform="translate(-757.69 -285.35)"/><path class="cls-6" d="M1019.48,590a27,27,0,0,0-53.91-1l-4.83,272.47-7.07,399.46-9.79,553a27,27,0,1,0,53.91,1l3.37-190.61,7.4-417.49ZM993.9,1198l-2.08,150.49L989.29,1499l-3.46,150.48-1.74,75.23-2.16,75.23h-.5l.39-75.26.82-75.25,1.66-150.5,2.58-150.48,3-150.48,12-601.91h.5Z" transform="translate(-757.69 -285.35)"/><path class="cls-6" d="M941.65,590a27,27,0,0,0-53.91-1L866.05,1813.94a27,27,0,1,0,53.91,1l13-736.95,7.63-431.06Zm-24.91,608.94-2.37,149.38-2.82,149.38L907.81,1647l-1.88,74.68-2.3,74.67h-.5l.53-74.7,1-74.7,2-149.39,2.86-149.37,3.32-149.37,13.11-597.45h.5Z" transform="translate(-757.69 -285.35)"/><path class="cls-2" d="M1129.41,1873.06q4,20.36,8.06,40.7H1318.9v-40.7H1129.41Zm47,20.1q31.56-1.1,63.13-1.75c10.52-.27,21-.83,31.56-.5s21,.82,31.56,2.25v.5c-10.52,1.43-21,1.79-31.56,2.24s-21-.23-31.56-.5q-31.57-.66-63.13-1.74Z" transform="translate(-757.69 -285.35)"/><path class="cls-4" d="M889.27,414.15h36.84q-3.43-64.39-6.67-128.8h-31.8c-.12,19.17.62,38.4.7,57.51Q888.49,378.5,889.27,414.15Z" transform="translate(-757.69 -285.35)"/><path class="cls-6" d="M926.11,414.15H889.27c.31,15.62.64,31.24,1.09,46.86.29,9.84.68,19.68,1,29.52h39Q928.14,452.36,926.11,414.15Z" transform="translate(-757.69 -285.35)"/><path class="cls-7" d="M930.36,490.53h-39c.33,9.49.61,19,1,28.46H932Q931.18,504.76,930.36,490.53Z" transform="translate(-757.69 -285.35)"/><path class="cls-4" d="M1137.47,1913.76H1039.3q4.73,34.34,9.76,68.63h102.06l-2.73-13.53C1144.7,1950.51,1141.11,1932.13,1137.47,1913.76Z" transform="translate(-757.69 -285.35)"/><path class="cls-6" d="M1137.47,1913.76q-4-20.35-8.06-40.7H1033.8q2.71,20.36,5.5,40.7Z" transform="translate(-757.69 -285.35)"/><path class="cls-5" d="M888.34,342.86c-.08-19.11-.82-38.34-.7-57.51H810.88v128.8h78.39Q888.55,378.51,888.34,342.86Z" transform="translate(-757.69 -285.35)"/><path class="cls-8" d="M890.36,461c-.45-15.62-.78-31.24-1.09-46.86H848.32v76.38h43.06C891,480.69,890.65,470.85,890.36,461Z" transform="translate(-757.69 -285.35)"/><path class="cls-9" d="M891.38,490.53H848.32L870.75,519h21.61C892,509.5,891.71,500,891.38,490.53Z" transform="translate(-757.69 -285.35)"/><path class="cls-5" d="M803.1,1913.76H757.69v68.63h291.37q-5-34.29-9.76-68.63Z" transform="translate(-757.69 -285.35)"/><path class="cls-8" d="M1033.8,1873.06H803.1v40.7h236.2Q1036.5,1893.41,1033.8,1873.06Z" transform="translate(-757.69 -285.35)"/><path class="cls-10" d="M1208.71,304.36c27.8.27,55.6.36,83.4,0,.19,14.65.32,29.29.7,43.93.27,15.42.79,30.83,1.31,46.24h.5c.51-15.41,1-30.82,1.31-46.24s.52-30.82.72-46.23l0-2.26-2.33,0c-28.55-.44-57.1-.33-85.65-.05l-85.65.66-171.3,1.43v.5l171.3,1.43Z" transform="translate(-757.69 -285.35)"/><path class="cls-10" d="M1201,431.32c19,.29,38,.05,57-.36.13,7.4.41,14.81.64,22.21.24,8.1.66,16.2,1.12,24.3h.5c.45-8.1.87-16.2,1.11-24.3s.59-16.2.7-24.3l0-2-2.08,0c-19.66-.43-39.32-.69-59-.4l-59,.72-118,1.49v.5l118,1.49Z" transform="translate(-757.69 -285.35)"/><path class="cls-10" d="M1178,507.26c21.81-.46,43.62-.82,65.43-2.25v-.5c-21.81-1.43-43.62-1.79-65.43-2.24s-43.62.23-65.43.49l-130.85,1.75v.5l130.85,1.75C1134.34,507,1156.15,507.58,1178,507.26Z" transform="translate(-757.69 -285.35)"/><path class="cls-10" d="M1242.58,611.48l1.29,81.8c.39,27.27,1.39,54.53,2.07,81.79.9,27.26,1.89,54.52,3.13,81.77h.5c.25-27.28.25-54.56.15-81.83-.3-27.27-.28-54.54-.88-81.81l-1.68-81.8-2-81.79,0-1.78h-1.76l-253.12,1.56v.49l251.34,1.55Z" transform="translate(-757.69 -285.35)"/><polygon class="cls-10" points="475.22 1367.83 474.11 1217.56 472.09 1067.29 469.61 917.04 459.87 316.01 459.37 316.02 465.62 917.09 467.15 1067.36 469.13 1217.62 472.02 1367.87 473.48 1443 475.37 1518.12 475.87 1518.11 475.76 1442.97 475.22 1367.83"/><polygon class="cls-10" points="393.24 916.14 380.03 317.79 379.53 317.8 389.25 916.21 391.64 1065.82 394.48 1215.41 398.25 1364.99 400.14 1439.78 402.46 1514.56 402.96 1514.55 402.42 1439.74 401.44 1364.93 399.47 1215.32 396.58 1065.72 393.24 916.14"/><polygon class="cls-10" points="312.88 1441.42 313.55 1516.34 314.05 1516.34 315.16 1441.43 315.84 1366.52 317.18 1216.71 317.6 1066.89 317.57 917.07 317.61 317.79 317.11 317.79 313.58 917.06 312.66 1066.88 312.19 1216.69 312.65 1366.51 312.88 1441.42"/><polygon class="cls-10" points="232.22 912.58 229.19 1063.06 226.61 1213.55 224.95 1364.04 224.13 1439.3 223.74 1514.55 224.23 1514.56 226.4 1439.33 228.14 1364.1 231.6 1213.63 234.13 1063.14 236.21 912.65 244.7 310.68 244.2 310.68 232.22 912.58"/><polygon class="cls-10" points="155.06 913.47 151.74 1062.83 148.88 1212.21 146.93 1361.6 145.97 1436.29 145.44 1510.99 145.94 1511.01 148.24 1436.34 150.12 1361.66 153.86 1212.3 156.68 1062.93 159.05 913.54 168.67 316.02 168.17 316.01 155.06 913.47"/><path class="cls-10" d="M1271.1,1895.9c10.52-.45,21-.81,31.56-2.24v-.5c-10.52-1.43-21-1.79-31.56-2.25s-21,.23-31.56.5q-31.57.66-63.13,1.75v.5q31.56,1.08,63.13,1.74C1250.06,1895.67,1260.58,1896.23,1271.1,1895.9Z" transform="translate(-757.69 -285.35)"/><path class="cls-10" d="M1307.09,1942.43c14.52-.3,29.05-.51,43.59-1.8v-.49c-14.51-1.58-29-2.09-43.55-2.69s-29-.07-43.57,0q-43.57.23-87.15.86v.5q43.56,1.52,87.12,2.63C1278,1941.91,1292.56,1942.61,1307.09,1942.43Z" transform="translate(-757.69 -285.35)"/></svg>